HIERARCHY
ROOT root
{
	OFFSET	0	13.1	24.9
	CHANNELS 6  Xposition Yposition Zposition Xrotation Yrotation Zrotation
	JOINT spine_1
	{
		OFFSET	0	9.99999	0
		CHANNELS 3  Xrotation Yrotation Zrotation
		JOINT spine_2
		{
			OFFSET	0	112	-10
			CHANNELS 3  Xrotation Yrotation Zrotation
			JOINT spine_3
			{
				OFFSET	0	206.5	19.3
				CHANNELS 3  Xrotation Yrotation Zrotation
				JOINT spine_4
				{
					OFFSET	0	110.4	14.6
					CHANNELS 3  Xrotation Yrotation Zrotation
					JOINT neck_1
					{
						OFFSET	0	71.8	-50.3
						CHANNELS 3  Xrotation Yrotation Zrotation
						JOINT neck_2
						{
							OFFSET	0	86.2	-25.8
							CHANNELS 3  Xrotation Yrotation Zrotation
							JOINT head_ee
							{
								OFFSET	0	179.8	-8.7
								CHANNELS 3  Xrotation Yrotation Zrotation
								End Site
								{
									OFFSET	1	0	0
								}
							}
						}
					}
					JOINT left_clavicle
					{
						OFFSET	-43.2	22.4	-70.8
						CHANNELS 3  Xrotation Yrotation Zrotation
						JOINT left_shoulder
						{
							OFFSET	-93.9	-5.79999	48.7
							CHANNELS 3  Xrotation Yrotation Zrotation
							JOINT left_elbow
							{
								OFFSET	-291.4	-30.8	15.2
								CHANNELS 3  Xrotation Yrotation Zrotation
								JOINT left_lowarm_twist
								{
									OFFSET	-110.7	-3.89999	13.6
									CHANNELS 3  Xrotation Yrotation Zrotation
									JOINT left_hand
									{
										OFFSET	-110.7	-3.89999	13.6
										CHANNELS 3  Xrotation Yrotation Zrotation
										JOINT left_ee
										{
											OFFSET	-80.8	-5.10001	12.1
											CHANNELS 3  Xrotation Yrotation Zrotation
											End Site
											{
												OFFSET	1	0	0
											}
										}
									}
								}
							}
						}
					}
					JOINT right_clavicle
					{
						OFFSET	43.2	22.4	-70.8
						CHANNELS 3  Xrotation Yrotation Zrotation
						JOINT right_shoulder
						{
							OFFSET	93.9	-5.79999	48.7
							CHANNELS 3  Xrotation Yrotation Zrotation
							JOINT right_elbow
							{
								OFFSET	291.4	-30.8	15.2
								CHANNELS 3  Xrotation Yrotation Zrotation
								JOINT right_lowarm_twist
								{
									OFFSET	110.7	-3.89999	13.6
									CHANNELS 3  Xrotation Yrotation Zrotation
									JOINT right_hand
									{
										OFFSET	110.7	-3.89999	13.6
										CHANNELS 3  Xrotation Yrotation Zrotation
										JOINT right_ee
										{
											OFFSET	80.8	-5.10001	12.1
											CHANNELS 3  Xrotation Yrotation Zrotation
											End Site
											{
												OFFSET	1	0	0
											}
										}
									}
								}
							}
						}
					}
				}
			}
		}
	}
	JOINT left_hip
	{
		OFFSET	-82.8	-127.5	0.300001
		CHANNELS 3  Xrotation Yrotation Zrotation
		JOINT left_knee
		{
			OFFSET	-28.2	-396.7	2.2
			CHANNELS 3  Xrotation Yrotation Zrotation
			JOINT left_ankle
			{
				OFFSET	-11.7	-411.3	35.4
				CHANNELS 3  Xrotation Yrotation Zrotation
				JOINT left_toes
				{
					OFFSET	0	-60	-88.6
					CHANNELS 3  Xrotation Yrotation Zrotation
					JOINT left_foot_ee
					{
						OFFSET	-22.5	-16.5	-42.2
						CHANNELS 3  Xrotation Yrotation Zrotation
						End Site
						{
							OFFSET	1	0	0
						}
					}
				}
			}
		}
	}
	JOINT right_hip
	{
		OFFSET	82.8	-127.5	0.300001
		CHANNELS 3  Xrotation Yrotation Zrotation
		JOINT right_knee
		{
			OFFSET	28.2	-396.7	2.2
			CHANNELS 3  Xrotation Yrotation Zrotation
			JOINT right_ankle
			{
				OFFSET	11.7	-411.3	35.4
				CHANNELS 3  Xrotation Yrotation Zrotation
				JOINT right_toes
				{
					OFFSET	0	-60	-88.6
					CHANNELS 3  Xrotation Yrotation Zrotation
					JOINT right_foot_ee
					{
						OFFSET	22.5	-16.5	-42.2
						CHANNELS 3  Xrotation Yrotation Zrotation
						End Site
						{
							OFFSET	1	0	0
						}
					}
				}
			}
		}
	}
}
MOTION
Frames: 15
Frame Time: 0.02
2875.65103931 705.871 -1642.43190008 2.87663369815 74.4345924212 1.20382246482 0.567883 -0.274675 -0.460818 0.567967 -0.244796 -0.477362 0.570085 -0.144154 -0.516738 0.569782 -0.223953 -0.487488 -10.3827 8.84795 4.93035 -10.3832 13.3903 7.04445 -0.0 0.0 -0.0 1.07716 16.4468 3.61501 15.6107 -11.845 72.5003 1.13938 -29.4401 0.299346 -26.9902 -1.6854 2.9787 1.63975 9.56447 14.6696 -0.0 0.0 -0.0 9.73358 -11.7431 -18.1706 -9.60802 -8.10628 -63.046 0.655863 17.9988 -0.103873 -33.3277 2.27111 -3.54144 7.27071 -9.6777 -64.5758 0.0 0.0 0.0 1.42292 22.7391 -6.0609 5.50202 -0.265349 -0.802076 16.6402 -26.7628 -2.78509 -11.4872 0.0 0.0 -0.0 0.0 -0.0 25.0245 5.36603 -4.67919 -73.5794 3.83017 -9.83621 11.992 -26.1219 1.78317 -14.7995 0.0 0.0 0.0 0.0 0.0 
2861.14309055 707.037 -1630.98648482 2.19354478844 75.6384874689 1.89676646255 0.628118 -0.376016 -0.626813 0.628274 -0.335369 -0.649469 0.632215 -0.199166 -0.703286 0.631657 -0.307735 -0.663009 -9.67634 9.04631 4.29345 -9.68657 14.0965 6.40097 -0.0 0.0 -0.0 0.920622 15.6936 3.30211 16.7086 -11.8751 71.864 1.28892 -32.5564 0.376388 -25.9815 -1.5981 2.88334 1.76726 8.79578 15.2458 -0.0 0.0 -0.0 9.55379 -12.9391 -17.7082 -10.5036 -8.27741 -62.2956 0.600946 16.5779 -0.0875512 -35.9349 2.52958 -3.75368 7.19443 -10.9586 -64.019 0.0 0.0 0.0 -0.320795 23.6989 -5.00499 6.9983 -0.350758 -1.01556 16.3093 -29.2476 -2.81977 -10.4423 0.0 0.0 -0.0 0.0 -0.0 28.3765 9.61463 -7.51966 -71.6207 3.57643 -9.67138 11.384 -25.2702 1.688 -15.9381 0.0 0.0 0.0 0.0 0.0 
2849.77903682 708.162 -1607.35776514 3.84063875067 78.4657892609 0.264228124424 0.694412 -0.463986 -0.761495 0.694639 -0.414592 -0.789474 0.700554 -0.249921 -0.855972 0.699734 -0.381965 -0.805765 -9.58063 8.25363 4.36708 -9.57521 12.5396 6.26684 -0.0 0.0 -0.0 1.83284 15.1669 4.71247 19.0081 -12.5905 70.3759 1.26953 -32.1639 0.366013 -26.1865 -1.6157 2.90284 1.69213 7.75563 14.3627 -0.0 0.0 -0.0 9.35487 -13.0862 -17.3372 -12.3237 -6.78767 -61.7062 0.552134 15.2971 -0.0741472 -40.2187 2.97445 -4.07632 7.03028 -13.3437 -62.5333 0.0 0.0 0.0 -1.30366 24.0534 -4.54642 5.79704 -0.281746 -0.844341 17.8142 -29.0139 -3.04602 -9.72394 0.0 0.0 -0.0 0.0 -0.0 30.9821 7.56675 -7.14669 -70.2432 3.40144 -9.55034 8.12834 -26.0041 1.2224 -18.0296 0.0 0.0 0.0 0.0 0.0 
2838.97240874 705.296 -1587.53899179 5.10619345861 79.2775973774 -0.97051448141 0.576054 -0.191813 -0.928966 0.576524 -0.132314 -0.939288 0.57889 0.0584937 -0.946755 0.577651 -0.0917559 -0.944112 -9.68879 8.75346 4.66197 -9.6837 13.2951 6.68712 -0.0 0.0 -0.0 1.76754 14.5564 4.56523 22.2928 -13.1386 69.8155 1.16862 -30.0656 0.313859 -27.6264 -1.74133 3.03805 1.80699 7.88394 15.1825 -0.0 0.0 -0.0 9.37386 -12.9619 -17.3849 -12.2437 -8.52778 -60.7202 0.459562 12.8252 -0.0516508 -41.4693 3.10876 -4.16417 7.11655 -13.3594 -63.8679 0.0 0.0 0.0 -3.00974 24.8685 -4.37372 5.17346 -0.247346 -0.754909 18.7962 -30.0282 -3.23883 -9.2679 0.0 0.0 -0.0 0.0 -0.0 33.089 9.99732 -8.23077 -63.1573 2.55038 -8.86383 8.58689 -21.2276 1.25989 -20.3477 0.0 0.0 0.0 0.0 0.0 
2823.33575349 706.015 -1562.04997821 4.58674720221 79.3435758602 -0.0370536087428 0.43917 0.0252862 -1.22623 0.440001 0.103257 -1.22214 0.438019 0.348893 -1.17583 0.436124 0.158829 -1.21617 -11.5571 9.15863 6.06133 -11.5433 13.4083 8.3411 -0.0 0.0 -0.0 3.69294 14.1194 7.67689 26.7166 -12.8173 64.9599 0.98011 -25.8969 0.225353 -32.937 -2.23322 3.50864 1.77962 8.73263 15.306 -0.0 0.0 -0.0 9.80724 -13.9029 -18.0402 -11.7255 -8.35339 -57.9466 0.410426 11.4925 -0.0413009 -46.5424 3.67225 -4.48996 7.20629 -19.6635 -67.3947 0.0 0.0 0.0 -4.90217 25.2211 -4.77871 -0.561831 0.0227259 0.0832239 20.8829 -25.4869 -3.36542 -8.75736 0.0 0.0 -0.0 0.0 -0.0 32.0907 11.9948 -9.04453 -38.0414 0.346889 -5.72214 5.65452 -1.50719 0.820558 -24.8111 0.0 0.0 0.0 0.0 0.0 
2797.38694077 700.636 -1552.96643043 9.40781450487 79.6190892604 -5.26890949766 0.108726 -0.246532 -1.23096 0.109553 -0.167709 -1.24415 0.113648 0.0950468 -1.2518 0.111476 -0.103829 -1.2511 -10.9936 9.9779 7.06265 -10.9431 14.2094 9.45723 -0.0 0.0 -0.0 4.95509 14.1123 9.7555 28.1562 -12.4292 61.9455 0.937261 -24.9047 0.206972 -35.3949 -2.47526 3.71069 1.17453 8.05221 11.0255 -0.0 0.0 -0.0 10.096 -15.6924 -18.2992 -12.2588 -8.42272 -55.4494 0.368756 10.3523 -0.0334049 -48.7169 3.92218 -4.61412 7.18313 -21.9888 -67.3222 0.0 0.0 0.0 -7.52072 29.6702 -3.3305 -1.85033 0.0717519 0.274885 25.1758 -21.9702 -3.81441 -9.00542 0.0 0.0 -0.0 0.0 -0.0 32.4466 12.8215 -9.66367 -31.1721 0.00261063 -4.72526 5.04755 -2.24881 0.73279 -24.6323 0.0 0.0 0.0 0.0 0.0 
2796.35027744 700.636 -1556.4051258 8.96720064455 79.1074633738 -4.82059685874 0.108726 -0.246532 -1.23096 0.109553 -0.167709 -1.24415 0.113648 0.0950468 -1.2518 0.111476 -0.103829 -1.2511 -10.9936 9.9779 7.06265 -10.9431 14.2094 9.45723 -0.0 0.0 -0.0 4.95509 14.1123 9.7555 28.1562 -12.4292 61.9455 0.937261 -24.9047 0.206972 -35.3949 -2.47526 3.71069 1.17453 8.05221 11.0255 -0.0 0.0 -0.0 10.096 -15.6924 -18.2992 -12.2588 -8.42272 -55.4494 0.368756 10.3523 -0.0334049 -48.7169 3.92218 -4.61412 7.18313 -21.9888 -67.3222 0.0 0.0 0.0 -7.52072 29.6702 -3.3305 -1.85033 0.0717519 0.274885 25.1758 -21.9702 -3.81441 -9.00542 0.0 0.0 -0.0 0.0 -0.0 32.4466 12.8215 -9.66367 -31.1721 0.00261063 -4.72526 5.04755 -2.24881 0.73279 -24.6323 0.0 0.0 0.0 0.0 0.0 
2777.05124912 697.578 -1553.31835123 8.5157122669 77.8958705864 -4.42524112247 -0.0339205 -0.289485 -1.31908 -0.0329759 -0.204969 -1.33483 -0.0276272 0.0808041 -1.34805 -0.0301383 -0.13309 -1.3439 -10.8484 10.316 7.29541 -10.7915 14.6693 9.75311 -0.0 0.0 -0.0 5.57395 13.6632 10.7926 29.2833 -12.5999 60.3328 0.911876 -24.3092 0.196402 -37.3158 -2.67032 3.86129 1.07137 7.75158 10.2301 -0.0 0.0 -0.0 10.2089 -15.6231 -18.5051 -12.2085 -8.33498 -53.5684 0.322619 9.0802 -0.025618 -50.8096 4.16696 -4.72457 7.17503 -23.6812 -67.2703 0.0 0.0 0.0 -9.38646 28.3635 -2.45853 -3.56597 0.130309 0.531664 24.5411 -21.6496 -3.72152 -9.42602 0.0 0.0 -0.0 0.0 -0.0 31.6182 12.9069 -9.19356 -24.7348 -0.209472 -3.7606 4.52959 3.06074 0.667922 -24.6604 0.0 0.0 0.0 0.0 0.0 
2776.34039033 697.578 -1555.79869903 8.27755553714 77.5446802154 -4.18150915914 -0.0339205 -0.289485 -1.31908 -0.0329759 -0.204969 -1.33483 -0.0276272 0.0808041 -1.34805 -0.0301383 -0.13309 -1.3439 -10.8484 10.316 7.29541 -10.7915 14.6693 9.75311 -0.0 0.0 -0.0 5.57395 13.6632 10.7926 29.2833 -12.5999 60.3328 0.911876 -24.3092 0.196402 -37.3158 -2.67032 3.86129 1.07137 7.75158 10.2301 -0.0 0.0 -0.0 10.2089 -15.6231 -18.5051 -12.2085 -8.33498 -53.5684 0.322619 9.0802 -0.025618 -50.8096 4.16696 -4.72457 7.17503 -23.6812 -67.2703 0.0 0.0 0.0 -9.38646 28.3635 -2.45853 -3.56597 0.130309 0.531664 24.5411 -21.6496 -3.72152 -9.42602 0.0 0.0 -0.0 0.0 -0.0 31.6182 12.9069 -9.19356 -24.7348 -0.209472 -3.7606 4.52959 3.06074 0.667922 -24.6604 0.0 0.0 0.0 0.0 0.0 
2759.46060365 692.488 -1554.3778896 6.95554631202 76.8555955859 -3.18868771509 -0.00650238 -0.241109 -1.3632 -0.00548158 -0.153885 -1.37577 -0.00121847 0.138748 -1.37738 -0.00385727 -0.0805039 -1.38201 -11.2295 11.0198 7.24335 -11.203 16.1124 9.94143 -0.0 0.0 -0.0 6.75302 13.5046 12.7877 30.643 -12.5923 58.4312 0.945496 -25.0966 0.210453 -39.0123 -2.84674 3.98882 0.808507 7.136 8.26103 -0.0 0.0 -0.0 10.4843 -16.1225 -18.9058 -12.3065 -8.33129 -52.1366 0.230449 6.51273 -0.0131116 -55.4331 4.72088 -4.93646 7.15661 -27.2904 -66.676 0.0 0.0 0.0 -11.1336 29.3852 -1.62967 -3.26397 0.12056 0.48634 28.269 -19.7886 -4.11808 -8.06649 0.0 0.0 -0.0 0.0 -0.0 29.686 13.8631 -8.60889 -11.6264 -0.301438 -1.75575 1.18836 4.24993 0.177692 -23.7725 0.0 0.0 0.0 0.0 0.0 
2758.5671783 692.488 -1557.67513264 6.72898591664 76.406865246 -2.95581880413 -0.00650238 -0.241109 -1.3632 -0.00548158 -0.153885 -1.37577 -0.00121847 0.138748 -1.37738 -0.00385727 -0.0805039 -1.38201 -11.2295 11.0198 7.24335 -11.203 16.1124 9.94143 -0.0 0.0 -0.0 6.75302 13.5046 12.7877 30.643 -12.5923 58.4312 0.945496 -25.0966 0.210453 -39.0123 -2.84674 3.98882 0.808507 7.136 8.26103 -0.0 0.0 -0.0 10.4843 -16.1225 -18.9058 -12.3065 -8.33129 -52.1366 0.230449 6.51273 -0.0131116 -55.4331 4.72088 -4.93646 7.15661 -27.2904 -66.676 0.0 0.0 0.0 -11.1336 29.3852 -1.62967 -3.26397 0.12056 0.48634 28.269 -19.7886 -4.11808 -8.06649 0.0 0.0 -0.0 0.0 -0.0 29.686 13.8631 -8.60889 -11.6264 -0.301438 -1.75575 1.18836 4.24993 0.177692 -23.7725 0.0 0.0 0.0 0.0 0.0 
2745.03469527 687.812 -1559.52766493 7.5116534677 76.0029615003 -3.91947231123 -0.114706 -0.332583 -1.35124 -0.113724 -0.245934 -1.36966 -0.107197 0.0500152 -1.39066 -0.109855 -0.170219 -1.38111 -10.3849 11.4558 6.65076 -10.374 17.1723 9.37663 -0.0 0.0 -0.0 6.70911 12.9889 12.738 31.491 -13.6229 57.5728 0.887464 -23.7311 0.186465 -41.4289 -3.1044 4.16139 0.623006 4.91606 6.16107 -0.0 0.0 -0.0 10.7647 -16.0605 -19.4034 -12.5936 -8.49637 -51.8157 0.194963 5.5166 -0.00939304 -55.3267 4.70795 -4.93209 7.20721 -29.7581 -67.0031 0.0 0.0 0.0 -12.1145 29.2346 -1.22905 -4.09867 0.146922 0.611728 26.8172 -18.969 -3.9162 -9.34789 0.0 0.0 -0.0 0.0 -0.0 29.1532 13.6141 -9.23938 -3.44881 -0.126556 -0.514076 -0.168758 4.57415 -0.0253556 -24.7903 0.0 0.0 0.0 0.0 0.0 
2724.10259618 688.872 -1562.64156909 7.08453961041 75.8739753609 -3.74782910112 -0.130147 -0.373284 -1.22034 -0.129367 -0.29488 -1.24162 -0.122405 -0.0246382 -1.27591 -0.124605 -0.225819 -1.25601 -10.8343 11.7497 5.92587 -10.8793 18.2944 8.82847 -0.0 0.0 -0.0 7.35486 13.3078 13.8274 32.1252 -13.8628 56.9212 0.899884 -24.0259 0.191492 -42.7416 -3.24734 4.25054 0.400825 3.71783 4.20749 -0.0 0.0 -0.0 10.7995 -17.3129 -19.2487 -12.8593 -8.72816 -51.2597 0.211387 5.97809 -0.0110379 -56.442 4.84387 -4.9767 7.26416 -32.5906 -66.9278 0.0 0.0 0.0 -13.3647 29.4486 -0.759543 -4.55692 0.160616 0.680723 28.0504 -18.9068 -4.06207 -9.3181 0.0 0.0 -0.0 0.0 -0.0 27.9406 14.0009 -8.91914 2.8507 0.127845 0.41869 -4.13291 7.14692 -0.633921 -23.9049 0.0 0.0 0.0 0.0 0.0 
2701.39830946 684.706 -1568.36433435 6.3924741887 75.2262725583 -3.35277541862 -0.0539831 -0.330653 -1.03464 -0.0534263 -0.26415 -1.05358 -0.0481648 -0.0359208 -1.08559 -0.0497499 -0.206909 -1.0663 -10.5552 12.1858 6.36735 -10.5828 18.7773 9.3239 -0.0 0.0 -0.0 7.48522 13.172 14.0606 32.6733 -14.0722 56.3541 0.90148 -24.0636 0.192143 -44.706 -3.46497 4.37779 0.411048 1.18631 3.23687 -0.0 0.0 -0.0 10.8343 -17.4577 -19.2826 -13.7465 -9.70895 -52.0682 0.19597 5.5449 -0.00949008 -57.3576 4.95608 -5.01134 7.34894 -34.3025 -67.5282 0.0 0.0 0.0 -14.9587 28.737 -0.548508 -4.8611 0.169401 0.726579 28.647 -18.7955 -4.12865 -9.15618 0.0 0.0 -0.0 0.0 -0.0 27.215 14.0872 -9.30026 6.83159 0.340965 0.991888 -6.36237 6.3326 -0.976344 -24.614 0.0 0.0 0.0 0.0 0.0 
2682.57134172 683.946 -1571.80760351 6.41039655109 74.9824467858 -3.40617948155 -0.0516494 -0.163943 -0.911465 -0.0511933 -0.105615 -0.920049 -0.049236 0.0909122 -0.921618 -0.0504173 -0.0557747 -0.92441 -10.3818 12.2197 5.57326 -10.4383 19.3403 8.54594 -0.0 0.0 -0.0 7.70816 12.9863 14.4589 32.2402 -14.244 56.2794 0.972485 -25.7215 0.222033 -47.2029 -3.74767 4.52867 0.384843 0.0395607 2.58725 -0.0 0.0 -0.0 11.0086 -17.7476 -19.5275 -13.52 -10.8843 -51.9118 0.184883 5.23299 -0.00844886 -60.2205 5.31018 -5.10799 7.29943 -34.617 -66.4818 0.0 0.0 0.0 -16.6675 28.5332 -0.388323 -4.28105 0.152438 0.639176 29.6889 -20.127 -4.29671 -8.47186 0.0 0.0 -0.0 0.0 -0.0 26.6712 13.6441 -9.92564 7.92519 0.406459 1.14669 -6.16517 2.92078 -0.93257 -24.7387 0.0 0.0 0.0 0.0 0.0 
